<svg width="1556" height="644" viewBox="0 0 1556 644" fill="none" xmlns="http://www.w3.org/2000/svg">
<rect width="1556" height="644" fill="white"/>
<path d="M624.733 257.331L582.235 374.558H548L606.059 233.148H627.845L624.733 257.331ZM660.04 374.558L617.435 257.331L614.001 233.148H636.001L694.383 374.558H660.04ZM658.108 321.917V344.742H575.581V321.917H658.108ZM734.413 289.672V414.961H703.505V269.471H732.157L734.413 289.672ZM807.926 320.849V322.888C807.926 330.53 806.924 337.618 804.919 344.158C802.989 350.698 800.127 356.396 796.335 361.253C792.543 366.045 787.822 369.8 782.17 372.519C776.588 375.172 770.149 376.501 762.85 376.501C755.769 376.501 749.615 375.205 744.393 372.615C739.169 370.025 734.771 366.401 731.194 361.739C727.687 357.011 724.861 351.54 722.714 345.323C720.569 339.109 718.922 332.44 717.777 325.316V319.974C718.922 312.335 720.569 305.343 722.714 298.997C724.861 292.586 727.687 287.05 731.194 282.389C734.771 277.661 739.135 274.002 744.284 271.414C749.508 268.824 755.626 267.528 762.638 267.528C770.007 267.528 776.482 268.791 782.061 271.316C787.713 273.841 792.435 277.467 796.227 282.195C800.091 286.921 802.989 292.553 804.919 299.093C806.924 305.633 807.926 312.886 807.926 320.849ZM776.909 322.888V320.849C776.909 316.381 776.482 312.269 775.622 308.514C774.835 304.693 773.547 301.36 771.758 298.51C770.043 295.662 767.753 293.46 764.891 291.906C762.099 290.287 758.701 289.478 754.696 289.478C750.475 289.478 746.861 290.094 743.857 291.323C740.922 292.553 738.526 294.335 736.667 296.665C734.807 298.997 733.411 301.78 732.481 305.019C731.551 308.256 730.979 311.913 730.764 315.994V329.493C731.121 334.285 732.123 338.591 733.768 342.409C735.413 346.167 737.954 349.144 741.388 351.345C744.823 353.548 749.33 354.648 754.909 354.648C758.988 354.648 762.423 353.839 765.212 352.219C768.002 350.536 770.255 348.237 771.973 345.323C773.762 342.409 775.013 339.043 775.731 335.222C776.516 331.404 776.909 327.292 776.909 322.888ZM858.043 289.672V414.961H827.135V269.471H855.789L858.043 289.672ZM931.556 320.849V322.888C931.556 330.53 930.553 337.618 928.551 344.158C926.619 350.698 923.757 356.396 919.965 361.253C916.173 366.045 911.451 369.8 905.799 372.519C900.218 375.172 893.779 376.501 886.482 376.501C879.398 376.501 873.247 375.205 868.022 372.615C862.801 370.025 858.4 366.401 854.823 361.739C851.319 357.011 848.493 351.54 846.346 345.323C844.198 339.109 842.554 332.44 841.409 325.316V319.974C842.554 312.335 844.198 305.343 846.346 298.997C848.493 292.586 851.319 287.05 854.823 282.389C858.4 277.661 862.764 274.002 867.916 271.414C873.138 268.824 879.256 267.528 886.267 267.528C893.636 267.528 900.112 268.791 905.693 271.316C911.345 273.841 916.067 277.467 919.859 282.195C923.721 286.921 926.619 292.553 928.551 299.093C930.553 305.633 931.556 312.886 931.556 320.849ZM900.541 322.888V320.849C900.541 316.381 900.112 312.269 899.254 308.514C898.467 304.693 897.179 301.36 895.39 298.51C893.672 295.662 891.383 293.46 888.521 291.906C885.731 290.287 882.333 289.478 878.326 289.478C874.104 289.478 870.491 290.094 867.486 291.323C864.554 292.553 862.156 294.335 860.296 296.665C858.436 298.997 857.04 301.78 856.11 305.019C855.181 308.256 854.608 311.913 854.393 315.994V329.493C854.751 334.285 855.753 338.591 857.398 342.409C859.045 346.167 861.583 349.144 865.018 351.345C868.452 353.548 872.959 354.648 878.541 354.648C882.618 354.648 886.052 353.839 888.844 352.219C891.634 350.536 893.887 348.237 895.605 345.323C897.392 342.409 898.645 339.043 899.36 335.222C900.148 331.404 900.541 327.292 900.541 322.888ZM1013.87 312.497H973.733L973.518 292.49H1007.22C1013.15 292.49 1018.02 291.81 1021.81 290.451C1025.6 289.025 1028.43 286.986 1030.29 284.33C1032.22 281.611 1033.19 278.308 1033.19 274.424C1033.19 270.022 1032.26 266.459 1030.4 263.74C1028.61 261.021 1025.78 259.047 1021.92 257.817C1018.13 256.586 1013.23 255.972 1007.22 255.972H984.894V374.558H952.699V233.148H1007.22C1016.3 233.148 1024.42 233.924 1031.58 235.478C1038.8 237.032 1044.92 239.395 1049.93 242.568C1054.94 245.74 1058.76 249.755 1061.41 254.612C1064.06 259.403 1065.38 265.1 1065.38 271.705C1065.38 277.533 1063.92 282.905 1060.98 287.828C1058.12 292.748 1053.58 296.763 1047.35 299.871C1041.2 302.977 1033.15 304.693 1023.2 305.019L1013.87 312.497ZM1012.47 374.558H964.932L977.489 351.832H1012.47C1018.13 351.832 1022.74 351.021 1026.32 349.404C1029.9 347.721 1032.54 345.454 1034.26 342.604C1035.98 339.756 1036.83 336.486 1036.83 332.796C1036.83 328.652 1036.05 325.058 1034.47 322.014C1032.97 318.971 1030.54 316.641 1027.18 315.021C1023.81 313.338 1019.38 312.497 1013.87 312.497H982.853L983.068 292.49H1021.7L1029.11 300.357C1038.62 300.226 1046.28 301.749 1052.07 304.921C1057.94 308.029 1062.2 312.075 1064.85 317.061C1067.56 322.046 1068.92 327.389 1068.92 333.087C1068.92 342.152 1066.74 349.791 1062.38 356.007C1058.01 362.158 1051.61 366.788 1043.17 369.896C1034.8 373.004 1024.56 374.558 1012.47 374.558ZM1125.59 362.709L1156.39 269.471H1189.55L1142.87 390.39C1141.86 393.044 1140.5 395.894 1138.79 398.937C1137.14 401.979 1134.89 404.86 1132.03 407.579C1129.24 410.364 1125.69 412.631 1121.4 414.379C1117.18 416.128 1111.99 417 1105.84 417C1102.91 417 1100.51 416.838 1098.65 416.515C1096.79 416.191 1094.57 415.739 1092 415.155V394.663C1092.78 394.663 1093.61 394.663 1094.46 394.663C1095.32 394.727 1096.15 394.759 1096.93 394.759C1101.01 394.759 1104.34 394.34 1106.92 393.498C1109.49 392.655 1111.56 391.361 1113.14 389.612C1114.71 387.929 1115.97 385.728 1116.89 383.009L1125.59 362.709ZM1112.71 269.471L1137.93 345.616L1142.33 375.238L1121.3 377.277L1079.55 269.471H1112.71ZM1267.36 257.331L1224.86 374.558H1190.62L1248.68 233.148H1270.47L1267.36 257.331ZM1302.66 374.558L1260.06 257.331L1256.62 233.148H1278.62L1337 374.558H1302.66ZM1300.73 321.917V344.742H1218.2V321.917H1300.73ZM1382.19 269.471V374.558H1351.17V269.471H1382.19ZM1349.24 242.083C1349.24 238.002 1350.81 234.636 1353.96 231.98C1357.11 229.327 1361.33 228 1366.62 228C1371.85 228 1376.03 229.327 1379.18 231.98C1382.4 234.636 1384.01 238.002 1384.01 242.083C1384.01 246.162 1382.4 249.528 1379.18 252.184C1376.03 254.837 1371.85 256.164 1366.62 256.164C1361.33 256.164 1357.11 254.837 1353.96 252.184C1350.81 249.528 1349.24 246.162 1349.24 242.083ZM1438.64 292.392V374.558H1407.73V269.471H1436.81L1438.64 292.392ZM1473.62 268.792L1473.08 294.724C1471.58 294.529 1469.76 294.368 1467.61 294.236C1465.54 294.044 1463.64 293.946 1461.92 293.946C1457.56 293.946 1453.77 294.464 1450.55 295.5C1447.4 296.47 1444.75 297.928 1442.61 299.871C1440.53 301.812 1438.96 304.175 1437.88 306.96C1436.88 309.745 1436.31 312.916 1436.17 316.479L1429.94 314.731C1429.94 307.933 1430.69 301.683 1432.2 295.985C1433.7 290.223 1435.88 285.205 1438.74 280.931C1441.68 276.658 1445.25 273.355 1449.48 271.025C1453.69 268.693 1458.53 267.528 1463.96 267.528C1465.68 267.528 1467.43 267.657 1469.22 267.917C1471.01 268.112 1472.48 268.402 1473.62 268.792Z" fill="black"/>
<path d="M395 98H117C70.0558 98 32 136.056 32 183V461C32 507.944 70.0558 546 117 546H395C441.944 546 480 507.944 480 461V183C480 136.056 441.944 98 395 98Z" fill="url(#paint0_linear_411_6)"/>
<path d="M95.2725 299.369L77.6768 353H63.5024L87.541 288.305H96.561L95.2725 299.369ZM109.891 353L92.251 299.369L90.8291 288.305H99.938L124.11 353H109.891ZM109.091 328.917V339.359H74.9219V328.917H109.091ZM140.684 314.165V371.484H127.887V304.923H139.75L140.684 314.165ZM171.121 328.428V329.361C171.121 332.857 170.706 336.1 169.876 339.092C169.077 342.084 167.892 344.691 166.322 346.913C164.752 349.105 162.797 350.823 160.457 352.067C158.146 353.281 155.48 353.889 152.458 353.889C149.526 353.889 146.978 353.296 144.816 352.111C142.653 350.926 140.832 349.268 139.351 347.135C137.899 344.972 136.729 342.469 135.84 339.625C134.952 336.782 134.27 333.731 133.796 330.472V328.028C134.27 324.533 134.952 321.334 135.84 318.431C136.729 315.498 137.899 312.965 139.351 310.833C140.832 308.67 142.639 306.996 144.771 305.812C146.934 304.627 149.467 304.034 152.37 304.034C155.421 304.034 158.102 304.612 160.412 305.767C162.752 306.922 164.707 308.581 166.277 310.744C167.877 312.906 169.077 315.483 169.876 318.475C170.706 321.467 171.121 324.785 171.121 328.428ZM158.279 329.361V328.428C158.279 326.384 158.102 324.503 157.746 322.785C157.42 321.037 156.887 319.512 156.146 318.208C155.436 316.905 154.488 315.898 153.303 315.187C152.147 314.446 150.74 314.076 149.082 314.076C147.334 314.076 145.838 314.358 144.594 314.92C143.379 315.483 142.387 316.298 141.617 317.364C140.847 318.431 140.269 319.704 139.884 321.186C139.499 322.667 139.262 324.34 139.173 326.207V332.383C139.321 334.575 139.736 336.545 140.417 338.292C141.098 340.011 142.15 341.373 143.572 342.38C144.994 343.388 146.86 343.891 149.17 343.891C150.859 343.891 152.281 343.521 153.436 342.78C154.591 342.01 155.524 340.958 156.235 339.625C156.976 338.292 157.494 336.752 157.791 335.004C158.116 333.257 158.279 331.376 158.279 329.361ZM191.871 314.165V371.484H179.074V304.923H190.938L191.871 314.165ZM222.308 328.428V329.361C222.308 332.857 221.893 336.1 221.064 339.092C220.264 342.084 219.079 344.691 217.509 346.913C215.939 349.105 213.984 350.823 211.644 352.067C209.333 353.281 206.667 353.889 203.646 353.889C200.713 353.889 198.166 353.296 196.003 352.111C193.841 350.926 192.019 349.268 190.538 347.135C189.087 344.972 187.917 342.469 187.028 339.625C186.139 336.782 185.458 333.731 184.984 330.472V328.028C185.458 324.533 186.139 321.334 187.028 318.431C187.917 315.498 189.087 312.965 190.538 310.833C192.019 308.67 193.826 306.996 195.959 305.812C198.121 304.627 200.654 304.034 203.557 304.034C206.608 304.034 209.289 304.612 211.6 305.767C213.94 306.922 215.895 308.581 217.465 310.744C219.064 312.906 220.264 315.483 221.064 318.475C221.893 321.467 222.308 324.785 222.308 328.428ZM209.467 329.361V328.428C209.467 326.384 209.289 324.503 208.934 322.785C208.608 321.037 208.075 319.512 207.334 318.208C206.623 316.905 205.675 315.898 204.49 315.187C203.335 314.446 201.928 314.076 200.269 314.076C198.521 314.076 197.025 314.358 195.781 314.92C194.567 315.483 193.574 316.298 192.804 317.364C192.034 318.431 191.456 319.704 191.071 321.186C190.686 322.667 190.449 324.34 190.36 326.207V332.383C190.508 334.575 190.923 336.545 191.604 338.292C192.286 340.011 193.337 341.373 194.759 342.38C196.181 343.388 198.047 343.891 200.358 343.891C202.046 343.891 203.468 343.521 204.624 342.78C205.779 342.01 206.712 340.958 207.423 339.625C208.163 338.292 208.682 336.752 208.978 335.004C209.304 333.257 209.467 331.376 209.467 329.361ZM256.389 324.607H239.771L239.682 315.454H253.634C256.092 315.454 258.107 315.143 259.677 314.521C261.247 313.869 262.417 312.936 263.187 311.721C263.987 310.477 264.387 308.966 264.387 307.189C264.387 305.175 264.002 303.545 263.231 302.301C262.491 301.057 261.321 300.154 259.721 299.591C258.151 299.028 256.122 298.747 253.634 298.747H244.392V353H231.062V288.305H253.634C257.396 288.305 260.758 288.66 263.72 289.371C266.712 290.082 269.245 291.163 271.318 292.615C273.392 294.066 274.977 295.903 276.073 298.125C277.169 300.317 277.717 302.923 277.717 305.945C277.717 308.611 277.11 311.069 275.895 313.321C274.71 315.572 272.829 317.409 270.252 318.831C267.704 320.252 264.372 321.037 260.254 321.186L256.389 324.607ZM255.811 353H236.127L241.326 342.603H255.811C258.151 342.603 260.062 342.232 261.543 341.492C263.024 340.722 264.12 339.685 264.831 338.381C265.542 337.078 265.897 335.582 265.897 333.894C265.897 331.998 265.572 330.354 264.92 328.961C264.298 327.569 263.291 326.503 261.898 325.762C260.506 324.992 258.67 324.607 256.389 324.607H243.547L243.636 315.454H259.632L262.698 319.053C266.638 318.993 269.808 319.69 272.207 321.141C274.636 322.563 276.399 324.414 277.495 326.695C278.62 328.976 279.183 331.42 279.183 334.027C279.183 338.174 278.28 341.669 276.473 344.513C274.666 347.327 272.014 349.445 268.519 350.867C265.053 352.289 260.817 353 255.811 353ZM302.644 347.579L315.396 304.923H329.126L309.798 360.243C309.383 361.457 308.82 362.761 308.109 364.153C307.428 365.545 306.495 366.863 305.31 368.107C304.155 369.381 302.688 370.418 300.911 371.218C299.163 372.018 297.016 372.417 294.468 372.417C293.254 372.417 292.261 372.343 291.491 372.195C290.721 372.047 289.803 371.84 288.736 371.573V362.198C289.062 362.198 289.403 362.198 289.758 362.198C290.114 362.227 290.454 362.242 290.78 362.242C292.469 362.242 293.846 362.05 294.913 361.665C295.979 361.279 296.838 360.687 297.49 359.887C298.141 359.117 298.66 358.11 299.045 356.866L302.644 347.579ZM297.312 304.923L307.754 339.759L309.576 353.311L300.867 354.244L283.582 304.923H297.312ZM361.341 299.369L343.745 353H329.571L353.609 288.305H362.629L361.341 299.369ZM375.959 353L358.319 299.369L356.897 288.305H366.006L390.178 353H375.959ZM375.16 328.917V339.359H340.99V328.917H375.16ZM408.885 304.923V353H396.043V304.923H408.885ZM395.244 292.393C395.244 290.526 395.895 288.986 397.199 287.771C398.502 286.557 400.25 285.95 402.442 285.95C404.604 285.95 406.337 286.557 407.641 287.771C408.974 288.986 409.64 290.526 409.64 292.393C409.64 294.259 408.974 295.799 407.641 297.014C406.337 298.228 404.604 298.835 402.442 298.835C400.25 298.835 398.502 298.228 397.199 297.014C395.895 295.799 395.244 294.259 395.244 292.393ZM432.257 315.409V353H419.46V304.923H431.501L432.257 315.409ZM446.742 304.612L446.52 316.476C445.898 316.387 445.143 316.313 444.254 316.253C443.395 316.165 442.61 316.12 441.899 316.12C440.092 316.12 438.522 316.357 437.189 316.831C435.886 317.275 434.79 317.942 433.901 318.831C433.042 319.719 432.39 320.8 431.946 322.074C431.531 323.348 431.294 324.799 431.235 326.429L428.658 325.629C428.658 322.519 428.969 319.66 429.591 317.053C430.213 314.417 431.116 312.121 432.301 310.166C433.516 308.211 434.997 306.7 436.745 305.634C438.492 304.567 440.492 304.034 442.743 304.034C443.454 304.034 444.18 304.093 444.92 304.212C445.661 304.301 446.268 304.434 446.742 304.612Z" fill="white"/>
<defs>
<linearGradient id="paint0_linear_411_6" x1="256" y1="98" x2="256" y2="546" gradientUnits="userSpaceOnUse">
<stop stop-opacity="0.75"/>
<stop offset="1"/>
</linearGradient>
</defs>
</svg>
