<svg width="512" height="512" viewBox="0 0 512 512" fill="none" xmlns="http://www.w3.org/2000/svg">
<g filter="url(#filter0_ii_520_278)">
<rect x="32" y="32" width="448" height="448" rx="85" fill="url(#paint0_linear_520_278)"/>
</g>
<path d="M95.2725 233.369L77.6768 287H63.5024L87.541 222.305H96.561L95.2725 233.369ZM109.891 287L92.251 233.369L90.8291 222.305H99.938L124.11 287H109.891ZM109.091 262.917V273.359H74.9219V262.917H109.091ZM140.684 248.165V305.484H127.887V238.923H139.75L140.684 248.165ZM171.121 262.428V263.361C171.121 266.857 170.706 270.1 169.876 273.092C169.077 276.084 167.892 278.691 166.322 280.913C164.752 283.105 162.797 284.823 160.457 286.067C158.146 287.281 155.48 287.889 152.458 287.889C149.526 287.889 146.978 287.296 144.816 286.111C142.653 284.926 140.832 283.268 139.351 281.135C137.899 278.972 136.729 276.469 135.84 273.625C134.952 270.782 134.27 267.731 133.796 264.472V262.028C134.27 258.533 134.952 255.334 135.84 252.431C136.729 249.498 137.899 246.965 139.351 244.833C140.832 242.67 142.639 240.996 144.771 239.812C146.934 238.627 149.467 238.034 152.37 238.034C155.421 238.034 158.102 238.612 160.412 239.767C162.752 240.922 164.707 242.581 166.277 244.744C167.877 246.906 169.077 249.483 169.876 252.475C170.706 255.467 171.121 258.785 171.121 262.428ZM158.279 263.361V262.428C158.279 260.384 158.102 258.503 157.746 256.785C157.42 255.037 156.887 253.512 156.146 252.208C155.436 250.905 154.488 249.898 153.303 249.187C152.147 248.446 150.74 248.076 149.082 248.076C147.334 248.076 145.838 248.358 144.594 248.92C143.379 249.483 142.387 250.298 141.617 251.364C140.847 252.431 140.269 253.704 139.884 255.186C139.499 256.667 139.262 258.34 139.173 260.207V266.383C139.321 268.575 139.736 270.545 140.417 272.292C141.098 274.011 142.15 275.373 143.572 276.38C144.994 277.388 146.86 277.891 149.17 277.891C150.859 277.891 152.281 277.521 153.436 276.78C154.591 276.01 155.524 274.958 156.235 273.625C156.976 272.292 157.494 270.752 157.791 269.004C158.116 267.257 158.279 265.376 158.279 263.361ZM191.871 248.165V305.484H179.074V238.923H190.938L191.871 248.165ZM222.308 262.428V263.361C222.308 266.857 221.893 270.1 221.064 273.092C220.264 276.084 219.079 278.691 217.509 280.913C215.939 283.105 213.984 284.823 211.644 286.067C209.333 287.281 206.667 287.889 203.646 287.889C200.713 287.889 198.166 287.296 196.003 286.111C193.841 284.926 192.019 283.268 190.538 281.135C189.087 278.972 187.917 276.469 187.028 273.625C186.139 270.782 185.458 267.731 184.984 264.472V262.028C185.458 258.533 186.139 255.334 187.028 252.431C187.917 249.498 189.087 246.965 190.538 244.833C192.019 242.67 193.826 240.996 195.959 239.812C198.121 238.627 200.654 238.034 203.557 238.034C206.608 238.034 209.289 238.612 211.6 239.767C213.94 240.922 215.895 242.581 217.465 244.744C219.064 246.906 220.264 249.483 221.064 252.475C221.893 255.467 222.308 258.785 222.308 262.428ZM209.467 263.361V262.428C209.467 260.384 209.289 258.503 208.934 256.785C208.608 255.037 208.075 253.512 207.334 252.208C206.623 250.905 205.675 249.898 204.49 249.187C203.335 248.446 201.928 248.076 200.269 248.076C198.521 248.076 197.025 248.358 195.781 248.92C194.567 249.483 193.574 250.298 192.804 251.364C192.034 252.431 191.456 253.704 191.071 255.186C190.686 256.667 190.449 258.34 190.36 260.207V266.383C190.508 268.575 190.923 270.545 191.604 272.292C192.286 274.011 193.337 275.373 194.759 276.38C196.181 277.388 198.047 277.891 200.358 277.891C202.046 277.891 203.468 277.521 204.624 276.78C205.779 276.01 206.712 274.958 207.423 273.625C208.163 272.292 208.682 270.752 208.978 269.004C209.304 267.257 209.467 265.376 209.467 263.361ZM256.389 258.607H239.771L239.682 249.454H253.634C256.092 249.454 258.107 249.143 259.677 248.521C261.247 247.869 262.417 246.936 263.187 245.721C263.987 244.477 264.387 242.966 264.387 241.189C264.387 239.175 264.002 237.545 263.231 236.301C262.491 235.057 261.321 234.154 259.721 233.591C258.151 233.028 256.122 232.747 253.634 232.747H244.392V287H231.062V222.305H253.634C257.396 222.305 260.758 222.66 263.72 223.371C266.712 224.082 269.245 225.163 271.318 226.615C273.392 228.066 274.977 229.903 276.073 232.125C277.169 234.317 277.717 236.923 277.717 239.945C277.717 242.611 277.11 245.069 275.895 247.321C274.71 249.572 272.829 251.409 270.252 252.831C267.704 254.252 264.372 255.037 260.254 255.186L256.389 258.607ZM255.811 287H236.127L241.326 276.603H255.811C258.151 276.603 260.062 276.232 261.543 275.492C263.024 274.722 264.12 273.685 264.831 272.381C265.542 271.078 265.897 269.582 265.897 267.894C265.897 265.998 265.572 264.354 264.92 262.961C264.298 261.569 263.291 260.503 261.898 259.762C260.506 258.992 258.67 258.607 256.389 258.607H243.547L243.636 249.454H259.632L262.698 253.053C266.638 252.993 269.808 253.69 272.207 255.141C274.636 256.563 276.399 258.414 277.495 260.695C278.62 262.976 279.183 265.42 279.183 268.027C279.183 272.174 278.28 275.669 276.473 278.513C274.666 281.327 272.014 283.445 268.519 284.867C265.053 286.289 260.817 287 255.811 287ZM302.644 281.579L315.396 238.923H329.126L309.798 294.243C309.383 295.457 308.82 296.761 308.109 298.153C307.428 299.545 306.495 300.863 305.31 302.107C304.155 303.381 302.688 304.418 300.911 305.218C299.163 306.018 297.016 306.417 294.468 306.417C293.254 306.417 292.261 306.343 291.491 306.195C290.721 306.047 289.803 305.84 288.736 305.573V296.198C289.062 296.198 289.403 296.198 289.758 296.198C290.114 296.227 290.454 296.242 290.78 296.242C292.469 296.242 293.846 296.05 294.913 295.665C295.979 295.279 296.838 294.687 297.49 293.887C298.141 293.117 298.66 292.11 299.045 290.866L302.644 281.579ZM297.312 238.923L307.754 273.759L309.576 287.311L300.867 288.244L283.582 238.923H297.312ZM361.341 233.369L343.745 287H329.571L353.609 222.305H362.629L361.341 233.369ZM375.959 287L358.319 233.369L356.897 222.305H366.006L390.178 287H375.959ZM375.16 262.917V273.359H340.99V262.917H375.16ZM408.885 238.923V287H396.043V238.923H408.885ZM395.244 226.393C395.244 224.526 395.895 222.986 397.199 221.771C398.502 220.557 400.25 219.95 402.442 219.95C404.604 219.95 406.337 220.557 407.641 221.771C408.974 222.986 409.64 224.526 409.64 226.393C409.64 228.259 408.974 229.799 407.641 231.014C406.337 232.228 404.604 232.835 402.442 232.835C400.25 232.835 398.502 232.228 397.199 231.014C395.895 229.799 395.244 228.259 395.244 226.393ZM432.257 249.409V287H419.46V238.923H431.501L432.257 249.409ZM446.742 238.612L446.52 250.476C445.898 250.387 445.143 250.313 444.254 250.253C443.395 250.165 442.61 250.12 441.899 250.12C440.092 250.12 438.522 250.357 437.189 250.831C435.886 251.275 434.79 251.942 433.901 252.831C433.042 253.719 432.39 254.8 431.946 256.074C431.531 257.348 431.294 258.799 431.235 260.429L428.658 259.629C428.658 256.519 428.969 253.66 429.591 251.053C430.213 248.417 431.116 246.121 432.301 244.166C433.516 242.211 434.997 240.7 436.745 239.634C438.492 238.567 440.492 238.034 442.743 238.034C443.454 238.034 444.18 238.093 444.92 238.212C445.661 238.301 446.268 238.434 446.742 238.612Z" fill="white"/>
<defs>
<filter id="filter0_ii_520_278" x="32" y="22" width="452" height="465" filterUnits="userSpaceOnUse" color-interpolation-filters="sRGB">
<feFlood flood-opacity="0" result="BackgroundImageFix"/>
<feBlend mode="normal" in="SourceGraphic" in2="BackgroundImageFix" result="shape"/>
<feColorMatrix in="SourceAlpha" type="matrix" values="0 0 0 0 0 0 0 0 0 0 0 0 0 0 0 0 0 0 127 0" result="hardAlpha"/>
<feOffset dy="7"/>
<feGaussianBlur stdDeviation="20"/>
<feComposite in2="hardAlpha" operator="arithmetic" k2="-1" k3="1"/>
<feColorMatrix type="matrix" values="0 0 0 0 0.552941 0 0 0 0 0.552941 0 0 0 0 0.552941 0 0 0 0.5 0"/>
<feBlend mode="normal" in2="shape" result="effect1_innerShadow_520_278"/>
<feColorMatrix in="SourceAlpha" type="matrix" values="0 0 0 0 0 0 0 0 0 0 0 0 0 0 0 0 0 0 127 0" result="hardAlpha"/>
<feOffset dx="4" dy="-10"/>
<feGaussianBlur stdDeviation="20"/>
<feComposite in2="hardAlpha" operator="arithmetic" k2="-1" k3="1"/>
<feColorMatrix type="matrix" values="0 0 0 0 0.552941 0 0 0 0 0.552941 0 0 0 0 0.552941 0 0 0 0.5 0"/>
<feBlend mode="normal" in2="effect1_innerShadow_520_278" result="effect2_innerShadow_520_278"/>
</filter>
<linearGradient id="paint0_linear_520_278" x1="256" y1="32" x2="256" y2="480" gradientUnits="userSpaceOnUse">
<stop stop-opacity="0.75"/>
<stop offset="1"/>
</linearGradient>
</defs>
</svg>
